HIERARCHY
ROOT Hips
{
   OFFSET 0.00000 0.00000 0.00000
   CHANNELS 6 Xposition Yposition Zposition Zrotation Xrotation Yrotation
   JOINT RightUpLeg
   {
      OFFSET -8.945800 -8.667070 0.101652
      CHANNELS 3 Zrotation Xrotation Yrotation
      JOINT RightLeg
      {
         OFFSET 0.000000 -44.422697 1.372700
         CHANNELS 3 Zrotation Xrotation Yrotation
         JOINT RightFoot
         {
            OFFSET 0.253549 -42.092399 -1.460590
            CHANNELS 3 Zrotation Xrotation Yrotation
            JOINT RightToes
            {
               OFFSET 0.040000 -4.415090 8.499099
               CHANNELS 3 Zrotation Xrotation Yrotation
               End Site
               {
                  OFFSET -0.080000 -0.137448 9.779790
               }
            }
         }
      }
   }
   JOINT Spine
   {
      OFFSET 0.000000 11.890501 0.000000
      CHANNELS 3 Zrotation Xrotation Yrotation
      JOINT Spine1
      {
         OFFSET 0.000000 25.657401 0.127663
         CHANNELS 3 Zrotation Xrotation Yrotation
         JOINT HEad
         {
            OFFSET 0.000000 8.734161 0.011341
            CHANNELS 3 Zrotation Xrotation Yrotation
            End Site
            {
               OFFSET -0.290000 12.774200 2.513950
            }
         }
         JOINT LeftShoulder1
         {
            OFFSET 8.990000 -0.362252 -0.220000
            CHANNELS 3 Zrotation Xrotation Yrotation
            JOINT LeftArm
            {
               OFFSET 10.282700 -0.003380 0.322123
               CHANNELS 3 Zrotation Xrotation Yrotation
               JOINT LeftForeArm
               {
                  OFFSET 32.766900 0.099144 -1.424340
                  CHANNELS 3 Zrotation Xrotation Yrotation
                  JOINT LeftHand
                  {
                     OFFSET 27.564301 0.085362 1.022160
                     CHANNELS 3 Zrotation Xrotation Yrotation
                     End Site
                     {
                        OFFSET 16.744301 -0.600000 1.502910
                     }
                  }
               }
            }
         }
         JOINT RightShoulder
         {
            OFFSET -8.990000 -0.362252 -0.220000
            CHANNELS 3 Zrotation Xrotation Yrotation
            JOINT RightArm
            {
               OFFSET -10.282700 -0.003380 0.322123
               CHANNELS 3 Zrotation Xrotation Yrotation
               JOINT RightForeArm
               {
                  OFFSET -32.897098 0.099144 -1.424340
                  CHANNELS 3 Zrotation Xrotation Yrotation
                  JOINT RightHand
                  {
                     OFFSET -27.492101 0.085362 1.022160
                     CHANNELS 3 Zrotation Xrotation Yrotation
                     End Site
                     {
                        OFFSET -16.631201 -0.600000 1.502910
                     }
                  }
               }
            }
         }
      }
   }
   JOINT LeftUpLeg
   {
      OFFSET 8.945800 -8.667070 0.101652
      CHANNELS 3 Zrotation Xrotation Yrotation
      JOINT LeftLeg
      {
         OFFSET 0.000000 -44.422697 1.372700
         CHANNELS 3 Zrotation Xrotation Yrotation
         JOINT LeftFoot
         {
            OFFSET -0.253549 -42.092399 -1.460590
            CHANNELS 3 Zrotation Xrotation Yrotation
            JOINT LeftToes
            {
               OFFSET -0.040000 -4.415090 8.499099
               CHANNELS 3 Zrotation Xrotation Yrotation
               End Site
               {
                  OFFSET 0.080000 -0.047448 9.779790
               }
            }
         }
      }
   }
}
MOTION
Frames: 10
Frame Time: 0.016667
-401.496462 95.282877 -35.760412 26.348951 -20.507810 58.978581 -2.788193 14.631920 -19.362688 9.746243 26.153776 29.398695 -59.396411 30.604114 16.501573 11.384366 -9.446772 -53.586362 -11.506196 41.260592 113.741030 23.872295 -8.562658 -110.941813 7.950844 12.211415 -2.068255 32.421296 72.662100 -34.419864 -133.086181 21.603381 -183.599296 -36.003833 34.086343 -28.369312 -146.358878 -48.859202 -95.919919 -62.685140 47.639268 78.108773 127.690387 -24.558881 165.808006 44.704947 10.635829 98.735951 15.961290 7.465673 -11.798551 15.910500 4.636461 -46.945577 -23.762209 4.446584 91.360474 -0.492106 19.057524 9.481930 -14.553185 -22.617770 -9.697947
-401.474336 95.482100 -35.588145 26.290913 -19.904319 60.337393 -2.205245 14.008838 -21.166288 7.817237 26.738447 31.644642 -59.164253 31.720925 16.987013 11.747318 -8.886718 -53.296379 -10.351550 38.060662 114.195381 24.797487 -8.047178 -109.083872 7.511296 14.853916 -2.821888 28.932364 66.737826 -28.643489 -131.339456 7.958905 -175.650049 -28.899347 28.562432 -35.508268 -143.266510 -46.038053 -97.417199 -65.345130 52.414571 81.731819 128.598119 -23.169708 166.902147 44.591856 13.307390 98.718295 16.106189 7.651111 -9.467543 15.413751 4.099885 -49.920688 -23.261599 4.255956 90.111662 -2.710862 19.201381 10.612347 -13.954564 -21.335493 -11.084038
-401.372560 95.728491 -35.424740 25.008949 -18.962905 62.575475 -1.556650 12.710837 -22.483444 7.908590 26.851905 31.774870 -59.243490 32.620536 16.933361 12.058435 -8.637070 -53.514699 -9.545834 35.459719 113.943244 25.036683 -8.513155 -108.067929 7.970283 17.190329 -4.101971 25.460707 58.682308 -22.867583 -126.403278 -6.985950 -165.286808 -20.525552 21.113465 -41.634227 -138.808855 -43.848189 -99.309824 -67.604782 56.274885 85.543789 128.768354 -21.459558 167.330769 44.021805 15.578239 97.553714 16.333084 9.319624 -6.990625 14.603370 2.466435 -52.747898 -21.821297 4.159429 89.194143 -4.691385 18.629076 12.159133 -13.442111 -20.594759 -12.213747
-401.136659 95.948494 -35.279984 24.052511 -18.434430 63.734845 -1.919841 11.656027 -22.244584 9.138416 27.285586 30.549114 -58.543682 33.292961 17.138422 12.263587 -8.457659 -53.561732 -8.591073 33.665596 113.793404 24.315277 -9.232996 -107.629684 8.692764 18.925488 -5.344149 22.330407 49.806105 -18.591348 -116.988983 -22.460797 -152.592710 -12.177712 13.173035 -47.326569 -134.227342 -41.473257 -102.114846 -69.641558 58.775390 88.535050 128.695176 -20.585075 168.079795 43.412617 18.635845 97.055526 15.365982 9.774928 -4.224004 14.441795 1.310831 -55.181491 -21.436270 3.917882 88.503091 -6.629349 18.554798 13.547671 -12.974154 -19.711607 -13.385264
-400.838274 96.136178 -35.188329 23.520398 -17.912441 64.641423 -2.486429 11.245486 -20.605665 10.930509 27.145771 27.900684 -58.176526 33.635997 17.112894 12.343813 -8.436452 -53.639818 -7.553390 32.376155 113.393530 23.854427 -9.711258 -107.845620 9.122440 19.876839 -6.445495 19.915310 41.595794 -16.676030 -102.405381 -37.156697 -137.016942 -3.870588 5.053571 -51.184191 -129.457124 -39.848983 -105.407523 -71.096990 60.351340 90.553890 129.207658 -20.919941 168.559602 42.947202 21.657828 97.466799 14.399096 11.028616 -2.419346 14.512620 0.505123 -57.330176 -21.741409 3.359715 87.947790 -8.465769 18.525344 14.787363 -12.510732 -18.886602 -14.657509
-400.509714 96.277827 -35.117750 23.141700 -17.304728 65.810696 -3.151769 11.000031 -17.857810 13.296846 26.609123 24.033059 -58.050953 33.810044 16.917429 12.336122 -8.529791 -53.773331 -7.095849 31.762903 112.923401 23.251086 -9.914256 -108.825752 9.026984 20.180892 -7.360491 18.268659 35.977909 -17.392317 -83.885515 -49.311773 -118.722498 3.839421 -2.569885 -52.821681 -124.667304 -39.277962 -108.807482 -73.105536 61.361033 89.817377 130.702691 -23.398816 169.621123 42.948895 25.155419 99.539987 13.376257 11.487993 -0.219893 14.773062 -0.350227 -59.228696 -22.572939 2.405550 87.468208 -10.216528 18.291631 15.885849 -12.050234 -18.316139 -16.002476
-400.135797 96.356848 -35.069169 22.700820 -17.091864 66.039385 -3.525170 10.663461 -15.152139 15.307094 26.166923 20.569145 -57.822626 33.795356 16.817328 12.210870 -8.722188 -53.829008 -6.342287 31.278800 112.531512 23.961589 -9.980938 -109.403054 8.677521 19.852291 -8.154219 18.194934 33.077093 -21.306633 -62.378287 -57.894493 -99.071839 10.766040 -9.017598 -50.927478 -119.995441 -39.654521 -112.297053 -74.052952 61.092907 90.195175 131.901649 -24.662647 170.102979 42.290656 26.672657 100.708585 12.562904 12.353757 1.277700 15.474168 -0.334756 -61.266571 -22.597763 1.381614 87.025646 -11.846589 17.982122 16.811933 -11.554945 -18.003247 -17.512653
-399.714922 96.363028 -35.010426 22.540485 -17.015398 66.071152 -3.822385 10.540793 -12.563204 16.906509 25.654554 17.498815 -57.604723 33.685605 16.775978 12.030808 -8.930889 -53.837870 -5.039196 30.593681 112.344980 25.472002 -10.397188 -109.419890 8.015040 19.132108 -8.805030 19.647575 32.782046 -26.825694 -39.899431 -63.276648 -79.010105 16.802247 -14.037937 -46.497042 -115.732583 -40.864482 -115.322020 -74.419890 60.100084 90.463540 133.475748 -25.248260 171.185359 43.452530 26.472920 100.569713 12.470290 12.991303 3.171052 16.163294 -0.169937 -62.722768 -22.643056 0.159762 87.106830 -13.712411 17.467852 17.961714 -11.338227 -17.724034 -18.394592
-399.290041 96.314248 -34.941751 24.391731 -18.037625 66.199252 -3.937892 12.406224 -10.205506 18.046680 25.525194 14.603516 -57.287488 33.880648 16.810988 11.939121 -9.015407 -53.879599 -4.407272 29.764281 113.460849 28.545971 -9.274002 -107.880495 6.962047 18.182382 -9.285004 22.171743 35.399522 -33.195703 -17.161028 -66.816886 -58.676782 21.268576 -16.801031 -42.333127 -112.447351 -42.610924 -117.158631 -74.344137 60.080222 91.126485 134.999454 -26.208085 171.410878 45.653254 29.245429 102.859186 14.382889 13.949411 6.356821 17.075681 1.988428 -63.719169 -23.246615 -0.850800 87.627769 -15.855787 16.760437 19.271560 -11.372162 -17.216018 -18.629018
-398.850549 96.236876 -34.876184 24.977961 -18.442856 66.283666 -3.953546 13.248639 -8.256024 18.990219 24.959374 12.084509 -57.035146 33.705518 16.687078 11.750755 -9.210579 -53.931426 -4.426102 29.958811 114.171680 30.446388 -9.528241 -106.785431 5.580951 16.780675 -9.611606 26.356542 38.286608 -39.302637 4.006554 -69.064892 -39.173030 25.514196 -18.820289 -37.398342 -109.993476 -44.440131 -118.188897 -74.329008 59.277135 90.861399 136.832977 -27.109601 171.904045 46.905306 29.115887 103.470399 14.861093 14.489447 8.396186 17.906608 2.929741 -64.649626 -23.555967 -2.037831 88.013702 -18.181455 15.369244 20.281506 -11.455808 -16.727246 -18.757007
